<?xml version="1.0" encoding="UTF-8"?>
<svg version="1.1" xmlns="http://www.w3.org/2000/svg" width="240" height="240">
<path d="M0 0 C3.88806767 2.36664989 6.08830187 3.90350401 8 8 C9.32918252 8.67490448 10.66309253 9.34053004 12 10 C13.61230469 11.30932617 13.61230469 11.30932617 15.171875 12.79296875 C15.7498584 13.33743652 16.3278418 13.8819043 16.92333984 14.44287109 C17.82753662 15.3064624 17.82753662 15.3064624 18.75 16.1875 C20.00704084 17.37191326 21.26484772 18.55551407 22.5234375 19.73828125 C23.12510742 20.30498535 23.72677734 20.87168945 24.34667969 21.45556641 C28.201695 25.05669264 32.19298431 28.50561678 36.2578125 31.8671875 C36.99773437 32.48851562 37.73765625 33.10984375 38.5 33.75 C39.1703125 34.30171875 39.840625 34.8534375 40.53125 35.421875 C42 37 42 37 42 40 C41.00818726 39.99214478 41.00818726 39.99214478 39.99633789 39.98413086 C37.01840149 39.96342344 34.04048018 39.95035988 31.0625 39.9375 C30.02158203 39.92912109 28.98066406 39.92074219 27.90820312 39.91210938 C26.91884766 39.90888672 25.92949219 39.90566406 24.91015625 39.90234375 C23.53549194 39.89448853 23.53549194 39.89448853 22.13305664 39.88647461 C20.01636977 39.76078789 20.01636977 39.76078789 19 41 C18.2331064 46.13415083 18.11534913 51.42137754 21.296875 55.77441406 C24.67000079 59.40748341 28.45771772 62.55310249 32.3203125 65.65039062 C34.29892811 67.24018526 36.18103453 68.92194936 38.0625 70.625 C39.37104458 71.75459831 40.68406579 72.879019 42 74 C42.98484375 74.84046875 43.9696875 75.6809375 44.984375 76.546875 C51.21485183 81.84769276 57.49762271 87.07494196 63.85546875 92.22265625 C66 94 66 94 68 96 C67.73813817 100.71351295 65.31544752 104.68455248 62 108 C59.32941149 108.14115161 56.67567762 108.04247107 54 108 C54.00523682 108.9286084 54.01047363 109.8572168 54.01586914 110.81396484 C54.03289593 114.25423805 54.04544273 117.69446659 54.05493164 121.13476562 C54.05996514 122.62468166 54.06679242 124.11459274 54.07543945 125.60449219 C54.08754805 127.74415304 54.09323807 129.88374868 54.09765625 132.0234375 C54.10289307 133.31169434 54.10812988 134.59995117 54.11352539 135.92724609 C54 139 54 139 53 141 C39.8 141 26.6 141 13 141 C12.8125 129.3125 12.8125 129.3125 12.79223633 125.65356445 C12.65170645 120.84534872 12.55702776 117.84010744 9.85546875 113.765625 C6.45869725 111.6652957 4.47486409 111.35855994 0.5 111.4375 C-0.6034375 111.43621094 -1.706875 111.43492187 -2.84375 111.43359375 C-6.69643649 112.12497932 -8.35299842 113.12761966 -11 116 C-12.49909513 120.9225095 -12.08196023 126.20227985 -12 131.3125 C-11.95455775 134.2139878 -11.95256099 137.09732579 -12 140 C-13.86962718 141.86962718 -16.54663561 141.12886303 -19.03381348 141.13894653 C-19.87859253 141.1369223 -20.72337158 141.13489807 -21.59375 141.1328125 C-22.45560913 141.13376923 -23.31746826 141.13472595 -24.20544434 141.13571167 C-26.03133212 141.1363935 -27.85722231 141.13453904 -29.68310547 141.13037109 C-32.48801078 141.12502286 -35.29275595 141.13031599 -38.09765625 141.13671875 C-39.86718786 141.13605797 -41.63671936 141.13477681 -43.40625 141.1328125 C-44.25102905 141.13483673 -45.09580811 141.13686096 -45.96618652 141.13894653 C-51.88504969 141.11495031 -51.88504969 141.11495031 -53 140 C-53.0883967 137.6243148 -53.11530305 135.27791326 -53.09765625 132.90234375 C-53.0962413 132.19348526 -53.09482635 131.48462677 -53.09336853 130.75428772 C-53.08775443 128.48198288 -53.07519963 126.20977525 -53.0625 123.9375 C-53.05748681 122.40039204 -53.05292359 120.86328255 -53.04882812 119.32617188 C-53.03778042 115.55074358 -53.02050641 111.77538829 -53 108 C-53.91036011 108.07287231 -53.91036011 108.07287231 -54.83911133 108.1472168 C-61.42302086 108.45739797 -61.42302086 108.45739797 -64.26171875 106.20703125 C-64.96748047 105.02173828 -64.96748047 105.02173828 -65.6875 103.8125 C-66.18636719 103.03519531 -66.68523437 102.25789063 -67.19921875 101.45703125 C-68 99 -68 99 -67.42578125 96.43359375 C-65.77248342 93.61166348 -64.12386734 92.19299037 -61.5 90.25 C-56.91810734 86.74425792 -52.63014772 83.03681685 -48.3671875 79.15234375 C-45.63179405 76.66521208 -42.84874713 74.23774398 -40.05859375 71.8125 C-36.84116207 68.97969488 -33.68726427 66.07737503 -30.5390625 63.16796875 C-28 61 -28 61 -25.3984375 59.36328125 C-22.79142666 57.72045061 -20.91765859 56.42322313 -19 54 C-17.93476953 49.16385369 -17.95232467 45.0059099 -18 40 C-25.59 40 -33.18 40 -41 40 C-41 36 -41 36 -39.19921875 33.95703125 C-38.37035156 33.24933594 -37.54148437 32.54164062 -36.6875 31.8125 C-35.77613281 31.02617188 -34.86476562 30.23984375 -33.92578125 29.4296875 C-31.09266814 27.07695539 -28.23887945 24.75263612 -25.375 22.4375 C-21.29463458 19.13762642 -17.56498525 15.6778647 -13.91015625 11.91796875 C-9.58651849 7.5766474 -4.93045172 3.63239032 0 0 Z " fill="#060807" transform="translate(126,49)"/>
<path d="M0 0 C1.03125 0.70125 2.0625 1.4025 3.125 2.125 C5 4 5 4 5 8 C0.98540622 6.7557107 -2.56262153 5.25541636 -6.25 3.25 C-32.55311043 -10.08126591 -63.36642071 -11.96180307 -91.41210938 -3.10058594 C-105.01455588 1.48915873 -117.2025993 8.54990237 -128 18 C-128.74378906 18.60070313 -129.48757812 19.20140625 -130.25390625 19.8203125 C-144.36964177 31.55478481 -153.85001475 48.14983259 -159.9375 65.25 C-160.36131958 66.43638062 -160.36131958 66.43638062 -160.79370117 67.64672852 C-164.2756152 78.00705105 -165.37216145 88.36178469 -165.3125 99.25 C-165.30404053 100.88569946 -165.30404053 100.88569946 -165.29541016 102.55444336 C-164.95065628 125.63076593 -157.1152277 146.440881 -143.3828125 164.9765625 C-142 167 -142 167 -141 170 C-140.34 170 -139.68 170 -139 170 C-137.66015625 171.43359375 -137.66015625 171.43359375 -136.0625 173.4375 C-119.84759211 192.34934329 -94.31563205 203.85561709 -69.8125 206.75 C-68.20989516 206.85932912 -66.60526368 206.94148801 -65 207 C-64.03191406 207.03996094 -63.06382813 207.07992187 -62.06640625 207.12109375 C-32.56039721 207.73504987 -5.4411296 198.04796911 17 179 C17.70898438 178.42507812 18.41796875 177.85015625 19.1484375 177.2578125 C24.21138256 173.04839075 28.13906042 168.32085736 32 163 C33.32 163.33 34.64 163.66 36 164 C33.93734464 176.89159603 16.73529125 190.40918705 6.88769531 197.77539062 C-13.97522198 212.77686702 -36.48543125 219.44399423 -62.125 219.375 C-62.8516687 219.37478851 -63.5783374 219.37457703 -64.32702637 219.37435913 C-75.65121296 219.34149613 -86.18383765 218.53605308 -97 215 C-98.1446875 214.62617188 -99.289375 214.25234375 -100.46875 213.8671875 C-103.7153798 212.69994678 -106.84925732 211.40468976 -110 210 C-111.12792969 209.49726563 -112.25585938 208.99453125 -113.41796875 208.4765625 C-142.54182019 194.70657281 -163.31730895 170.67487651 -174.71875 140.74609375 C-185.13304426 110.2969834 -183.61443608 77.56278724 -170.15478516 48.35009766 C-155.82129129 19.18007398 -131.72461321 -1.38331036 -101.4375 -12.3125 C-98.63947734 -13.25937844 -95.82712628 -14.14436752 -93 -15 C-91.89398438 -15.34160156 -90.78796875 -15.68320313 -89.6484375 -16.03515625 C-59.80706521 -23.54791391 -25.31349447 -17.46840321 0 0 Z " fill="#09090B" transform="translate(186,20)"/>
<path d="M0 0 C4.40779288 2.20389644 7.75807486 4.35888464 10.75 8.3125 C13.34115359 11.40748902 16.20079514 13.53907425 19.4140625 15.95703125 C23.37221199 19.08408893 27.02571214 22.52604984 30.71484375 25.9609375 C32.82152022 28.01984928 32.82152022 28.01984928 35 29 C35 29.66 35 30.32 35 31 C28.07 31 21.14 31 14 31 C13.33625207 42.00462786 13.33625207 42.00462786 17.01171875 51.953125 C19.5663059 54.19083381 22.18346034 56.10590783 25 58 C26.35134812 59.16695856 27.68617155 60.35345541 29 61.5625 C31.94791072 64.14117746 34.98313122 66.5801642 38.0625 69 C41.7426949 71.91044421 45.03043332 74.97415449 48.28515625 78.34375 C50.70101073 80.6770582 53.35115157 82.60916839 56.06640625 84.578125 C58.81653072 86.60043875 61.3996124 88.78967054 64 91 C62.57568513 94.06775511 61.09219926 96.21040099 59 99 C55.7 99 52.4 99 49 99 C49 109.89 49 120.78 49 132 C37.12 132 25.24 132 13 132 C12.75 121.3125 12.75 121.3125 12.70214844 117.9699707 C12.55660639 113.78257281 12.34995601 110.69726084 10.453125 106.91796875 C7.42076699 104.27934906 7.42076699 104.27934906 0 103 C0 69.01 0 35.02 0 0 Z " fill="#E6FD14" transform="translate(128,55)"/>
<path d="M0 0 C3.88806767 2.36664989 6.08830187 3.90350401 8 8 C9.32918252 8.67490448 10.66309253 9.34053004 12 10 C13.61230469 11.30932617 13.61230469 11.30932617 15.171875 12.79296875 C16.0388501 13.60967041 16.0388501 13.60967041 16.92333984 14.44287109 C17.82753662 15.3064624 17.82753662 15.3064624 18.75 16.1875 C20.00704084 17.37191326 21.26484772 18.55551407 22.5234375 19.73828125 C23.12510742 20.30498535 23.72677734 20.87168945 24.34667969 21.45556641 C28.201695 25.05669264 32.19298431 28.50561678 36.2578125 31.8671875 C36.99773437 32.48851562 37.73765625 33.10984375 38.5 33.75 C39.1703125 34.30171875 39.840625 34.8534375 40.53125 35.421875 C42 37 42 37 42 40 C41.00818726 39.99214478 41.00818726 39.99214478 39.99633789 39.98413086 C37.01840149 39.96342344 34.04048018 39.95035988 31.0625 39.9375 C30.02158203 39.92912109 28.98066406 39.92074219 27.90820312 39.91210938 C26.91884766 39.90888672 25.92949219 39.90566406 24.91015625 39.90234375 C23.53549194 39.89448853 23.53549194 39.89448853 22.13305664 39.88647461 C20.01636977 39.76078789 20.01636977 39.76078789 19 41 C18.2331064 46.13415083 18.11534913 51.42137754 21.296875 55.77441406 C24.67000079 59.40748341 28.45771772 62.55310249 32.3203125 65.65039062 C34.29892811 67.24018526 36.18103453 68.92194936 38.0625 70.625 C39.37104458 71.75459831 40.68406579 72.879019 42 74 C42.98484375 74.84046875 43.9696875 75.6809375 44.984375 76.546875 C51.21485183 81.84769276 57.49762271 87.07494196 63.85546875 92.22265625 C66 94 66 94 68 96 C67.73813817 100.71351295 65.31544752 104.68455248 62 108 C59.32941149 108.14115161 56.67567762 108.04247107 54 108 C54.00523682 108.9286084 54.01047363 109.8572168 54.01586914 110.81396484 C54.03289593 114.25423805 54.04544273 117.69446659 54.05493164 121.13476562 C54.05996514 122.62468166 54.06679242 124.11459274 54.07543945 125.60449219 C54.08754805 127.74415304 54.09323807 129.88374868 54.09765625 132.0234375 C54.10289307 133.31169434 54.10812988 134.59995117 54.11352539 135.92724609 C54 139 54 139 53 141 C39.8 141 26.6 141 13 141 C12.8125 129.3125 12.8125 129.3125 12.79223633 125.65356445 C12.63529828 119.28571375 12.63529828 119.28571375 9.65625 113.78125 C6.69127897 111.79297531 4.53855966 111.24687626 1 111 C1.99 110.01 1.99 110.01 3 109 C7.34211335 109 9.40495886 109.4838404 12.7109375 112.3515625 C16.23300186 116.83504257 15.53852952 121.94309058 15.3125 127.375 C15.209375 130.88125 15.10625 134.3875 15 138 C26.88 138 38.76 138 51 138 C51 127.11 51 116.22 51 105 C55.95 104.505 55.95 104.505 61 104 C64.17714644 100.64027464 64.17714644 100.64027464 66 97 C65.41734375 96.73574219 64.8346875 96.47148437 64.234375 96.19921875 C61.91089289 94.95217503 60.20412895 93.57686849 58.25 91.8125 C57.55519531 91.19117188 56.86039062 90.56984375 56.14453125 89.9296875 C55.08298828 88.97449219 55.08298828 88.97449219 54 88 C52.64789772 86.81014999 51.29377341 85.62259327 49.9375 84.4375 C49.27621094 83.85871094 48.61492187 83.27992188 47.93359375 82.68359375 C46.13002592 81.11321449 44.31773697 79.5539384 42.5 78 C36.0388079 72.47225326 29.68498759 66.83464945 23.39453125 61.11328125 C21.04801604 58.9175833 21.04801604 58.9175833 18.21875 57.30859375 C15.34548259 54.31897925 15.47997617 52.50434343 15.54956055 48.48730469 C15.59508057 47.58399414 15.64060059 46.68068359 15.6875 45.75 C15.790625 42.8625 15.89375 39.975 16 37 C22.93 37 29.86 37 37 37 C37 36.34 37 35.68 37 35 C36.43410156 34.75378906 35.86820313 34.50757813 35.28515625 34.25390625 C32.60751742 32.78463776 30.66956388 31.02247565 28.4375 28.9375 C23.94727711 24.81260589 19.3088307 20.94205108 14.54296875 17.140625 C12 15 12 15 9.48828125 12.484375 C6.70240718 9.61206971 6.70240718 9.61206971 2 6 C2 39.66 2 73.32 2 108 C1.67 108 1.34 108 1 108 C0.67 73.68 0.34 39.36 0 4 C-3.23475448 5.61737724 -4.70572021 6.47629223 -7 9 C-7 6 -7 6 -5.46875 4.39453125 C-4.49421875 3.61142578 -4.49421875 3.61142578 -3.5 2.8125 C-2.8503125 2.28269531 -2.200625 1.75289062 -1.53125 1.20703125 C-1.0259375 0.80871094 -0.520625 0.41039062 0 0 Z " fill="#434C07" transform="translate(126,49)"/>
<path d="M0 0 C4.40779288 2.20389644 7.75807486 4.35888464 10.75 8.3125 C13.34115359 11.40748902 16.20079514 13.53907425 19.4140625 15.95703125 C23.37221199 19.08408893 27.02571214 22.52604984 30.71484375 25.9609375 C32.82152022 28.01984928 32.82152022 28.01984928 35 29 C35 29.66 35 30.32 35 31 C28.07 31 21.14 31 14 31 C13.48065609 41.63843016 13.48065609 41.63843016 16.625 51.53125 C18.69942447 53.33935708 18.69942447 53.33935708 22 55 C21.34 55.66 20.68 56.32 20 57 C19.01 56.34 18.02 55.68 17 55 C15.515 55.495 15.515 55.495 14 56 C12.04051671 50.27644998 11.72452863 45.21122407 11.8125 39.1875 C11.81314453 38.32962891 11.81378906 37.47175781 11.81445312 36.58789062 C11.85910689 30.28178621 11.85910689 30.28178621 13 28 C17.95 28.33 22.9 28.66 28 29 C26.75282088 25.25846263 24.90112219 23.62482484 22 21 C21.01 20.67 20.02 20.34 19 20 C19 19.34 19 18.68 19 18 C18.443125 17.773125 17.88625 17.54625 17.3125 17.3125 C14.36276727 15.63832737 12.3626116 13.42167689 10 11 C6.71389126 8.12465486 5.64866551 7.9297331 1 7 C1 38.02 1 69.04 1 101 C3.31 101.33 5.62 101.66 8 102 C11.47432052 103.9240261 13.72586506 106.17759518 15 110 C15.08106686 111.55421729 15.10756898 113.11167027 15.09765625 114.66796875 C15.09515869 115.47258545 15.09266113 116.27720215 15.09008789 117.10620117 C15.07643188 118.63144409 15.07643188 118.63144409 15.0625 120.1875 C15.0315625 125.0446875 15.0315625 125.0446875 15 130 C25.56 130 36.12 130 47 130 C46.96043063 119.88791275 46.96043063 119.88791275 46.90991211 109.77587891 C46.90741455 108.52210449 46.90491699 107.26833008 46.90234375 105.9765625 C46.89710693 104.68830566 46.89187012 103.40004883 46.88647461 102.07275391 C47 99 47 99 48 97 C51.63 97.33 55.26 97.66 59 98 C59 98.33 59 98.66 59 99 C55.7 99 52.4 99 49 99 C49 109.89 49 120.78 49 132 C37.12 132 25.24 132 13 132 C12.75 121.3125 12.75 121.3125 12.70214844 117.9699707 C12.55660639 113.78257281 12.34995601 110.69726084 10.453125 106.91796875 C7.42076699 104.27934906 7.42076699 104.27934906 0 103 C0 69.01 0 35.02 0 0 Z " fill="#CADA34" transform="translate(128,55)"/>
<path d="M0 0 C0.66 0.33 1.32 0.66 2 1 C2.34153937 2.66500443 2.67449498 4.33178677 3 6 C3.66 6.66 4.32 7.32 5 8 C5 9.32 5 10.64 5 12 C2.11562221 10.70700306 0.12780579 9.34058637 -2 7 C-5.22404978 8.66954819 -5.22404978 8.66954819 -5.6875 11.625 C-5.790625 12.40875 -5.89375 13.1925 -6 14 C-4.02 13.34 -2.04 12.68 0 12 C0.495 13.485 0.495 13.485 1 15 C0.67 15.66 0.34 16.32 0 17 C-3.0625 17.625 -3.0625 17.625 -6 18 C-6 18.99 -6 19.98 -6 21 C-6.66 21 -7.32 21 -8 21 C-8.66 21.66 -9.32 22.32 -10 23 C-10.66 23 -11.32 23 -12 23 C-12.33 23.66 -12.66 24.32 -13 25 C-14.9375 24.25 -14.9375 24.25 -17 23 C-17.75 20.875 -17.75 20.875 -18 19 C-18.66 19 -19.32 19 -20 19 C-19.505 19.928125 -19.01 20.85625 -18.5 21.8125 C-17 25 -17 25 -17 28 C-17.99 28 -18.98 28 -20 28 C-21.6875 25.5 -21.6875 25.5 -23 23 C-23.99 23.33 -24.98 23.66 -26 24 C-25.01 24.33 -24.02 24.66 -23 25 C-23 26.98 -23 28.96 -23 31 C-28.66336634 32.93069307 -28.66336634 32.93069307 -31.125 33.4375 C-33.14805883 33.92068803 -33.14805883 33.92068803 -35 35.5625 C-37 37 -37 37 -41 37 C-42.62950412 32.87831311 -43.26264601 30.29299643 -42 26 C-41.030625 25.87625 -40.06125 25.7525 -39.0625 25.625 C-38.051875 25.41875 -37.04125 25.2125 -36 25 C-35.67 24.34 -35.34 23.68 -35 23 C-33.68 23.33 -32.36 23.66 -31 24 C-31 23.01 -31 22.02 -31 21 C-29.88625 20.46375 -28.7725 19.9275 -27.625 19.375 C-23.28987571 17.22292044 -19.2029715 14.73684286 -15.1015625 12.171875 C-13 11 -13 11 -11 11 C-9.59386625 9.57438382 -9.59386625 9.57438382 -8.1875 7.75 C-5.70675465 4.74506767 -3.15392169 2.31906006 0 0 Z M-30 27 C-30 27.99 -30 28.98 -30 30 C-28.68 29.67 -27.36 29.34 -26 29 C-26 28.34 -26 27.68 -26 27 C-27.32 27 -28.64 27 -30 27 Z M-40 28 C-39.67 29.98 -39.34 31.96 -39 34 C-38.01 33.67 -37.02 33.34 -36 33 C-36.33 31.35 -36.66 29.7 -37 28 C-37.99 28 -38.98 28 -40 28 Z " fill="#312E31" transform="translate(203,180)"/>
<path d="M0 0 C0.66 0 1.32 0 2 0 C2.66 2.31 3.32 4.62 4 7 C5.32 7.33 6.64 7.66 8 8 C8 8.66 8 9.32 8 10 C2.25 11 2.25 11 0 11 C-0.99 11.66 -1.98 12.32 -3 13 C-5.5625 12.625 -5.5625 12.625 -8 12 C-8.66 12 -9.32 12 -10 12 C-10.33 12.66 -10.66 13.32 -11 14 C-12.8125 14.75 -12.8125 14.75 -15 15 C-16.33333333 14.33333333 -17.66666667 13.66666667 -19 13 C-21.19747131 13.29805007 -21.19747131 13.29805007 -23 14 C-23 12.68 -23 11.36 -23 10 C-23.99 10 -24.98 10 -26 10 C-26.33 11.65 -26.66 13.3 -27 15 C-30.14400906 15 -32.9262254 14.65399459 -36 14 C-36.66 13.34 -37.32 12.68 -38 12 C-38.598125 12.350625 -39.19625 12.70125 -39.8125 13.0625 C-42 14 -42 14 -45 13 C-44.67 12.01 -44.34 11.02 -44 10 C-43.34 9.67 -42.68 9.34 -42 9 C-42.66 8.34 -43.32 7.68 -44 7 C-43.625 4.375 -43.625 4.375 -43 2 C-40.625 1.875 -40.625 1.875 -38 2 C-37.34 2.66 -36.68 3.32 -36 4 C-35.67 3.67 -35.34 3.34 -35 3 C-33.48071962 2.92820036 -31.95832518 2.91607993 -30.4375 2.9375 C-29.61121094 2.94652344 -28.78492187 2.95554688 -27.93359375 2.96484375 C-27.29550781 2.97644531 -26.65742187 2.98804688 -26 3 C-26 4.32 -26 5.64 -26 7 C-25.01 7 -24.02 7 -23 7 C-23 5.68 -23 4.36 -23 3 C-22.443125 3.20625 -21.88625 3.4125 -21.3125 3.625 C-18.91244656 4.22519132 -18.91244656 4.22519132 -16.5 2.9375 C-14 2 -14 2 -11.6875 2.875 C-11.130625 3.24625 -10.57375 3.6175 -10 4 C-9.608125 3.484375 -9.21625 2.96875 -8.8125 2.4375 C-8.214375 1.963125 -7.61625 1.48875 -7 1 C-5.32457024 1.28604898 -3.65614657 1.61781233 -2 2 C-1.34 1.34 -0.68 0.68 0 0 Z M-6 4 C-6.33 5.65 -6.66 7.3 -7 9 C-5.68 9.33 -4.36 9.66 -3 10 C-3 8.35 -3 6.7 -3 5 C-3.99 4.67 -4.98 4.34 -6 4 Z M-41 5 C-40.01 5.495 -40.01 5.495 -39 6 C-38.67 6.66 -38.34 7.32 -38 8 C-37.67 7.01 -37.34 6.02 -37 5 C-38.32 5 -39.64 5 -41 5 Z M-34 6 C-34 7.65 -34 9.3 -34 11 C-31.525 11.495 -31.525 11.495 -29 12 C-29 10.02 -29 8.04 -29 6 C-30.65 6 -32.3 6 -34 6 Z M-15 5 C-15.99 5.495 -15.99 5.495 -17 6 C-16.67 7.65 -16.34 9.3 -16 11 C-15.01 11 -14.02 11 -13 11 C-12.67 10.01 -12.34 9.02 -12 8 C-12.99 7.01 -13.98 6.02 -15 5 Z " fill="#383438" transform="translate(151,209)"/>
<path d="M0 0 C3.3 0 6.6 0 10 0 C10 0.33 10 0.66 10 1 C7.03 1 4.06 1 1 1 C1.144375 1.79019531 1.28875 2.58039063 1.4375 3.39453125 C2.64620013 10.7390633 3.19315633 17.81404264 3.1875 25.25 C3.18814453 26.08378174 3.18878906 26.91756348 3.18945312 27.77661133 C3.13535462 33.72929075 3.13535462 33.72929075 2 36 C-11.2 36 -24.4 36 -38 36 C-38.1875 24.3125 -38.1875 24.3125 -38.20776367 20.65356445 C-38.36470172 14.28571375 -38.36470172 14.28571375 -41.34375 8.78125 C-44.30872103 6.79297531 -46.46144034 6.24687626 -50 6 C-49.34 5.34 -48.68 4.68 -48 4 C-43.65788665 4 -41.59504114 4.4838404 -38.2890625 7.3515625 C-34.76699814 11.83504257 -35.46147048 16.94309058 -35.6875 22.375 C-35.790625 25.88125 -35.89375 29.3875 -36 33 C-24.12 33 -12.24 33 0 33 C0 22.11 0 11.22 0 0 Z " fill="#404609" transform="translate(177,154)"/>
<path d="M0 0 C0.99 0 1.98 0 3 0 C3.33 1.65 3.66 3.3 4 5 C5.32 4.34 6.64 3.68 8 3 C8.93423645 6.01031744 9.04449911 6.86650268 8 10 C9.65 8.68 11.3 7.36 13 6 C13.4640625 6.9590625 13.4640625 6.9590625 13.9375 7.9375 C14.8345163 9.93610821 14.8345163 9.93610821 16 11 C16.33 10.67 16.66 10.34 17 10 C21.74904341 9.56826878 24.04464295 10.47296633 28 13 C28.66 12.67 29.32 12.34 30 12 C30.66 12.33 31.32 12.66 32 13 C31 16 31 16 29 18 C29.32041397 20.60280568 29.32041397 20.60280568 30 23 C29.01 23 28.02 23 27 23 C26.67 22.34 26.34 21.68 26 21 C24.68 21.33 23.36 21.66 22 22 C22.66 19.03 23.32 16.06 24 13 C22.02 13.33 20.04 13.66 18 14 C18.34786708 15.97536745 18.34786708 15.97536745 19 18 C19.66 18.33 20.32 18.66 21 19 C21 19.66 21 20.32 21 21 C19.35 20.67 17.7 20.34 16 20 C15.67 19.01 15.34 18.02 15 17 C13.68 17.33 12.36 17.66 11 18 C11 16.68 11 15.36 11 14 C10.2575 14.391875 9.515 14.78375 8.75 15.1875 C6 16 6 16 3.6875 14.75 C2 13 2 13 2 11 C1.01 11 0.02 11 -1 11 C-1.33 10.34 -1.66 9.68 -2 9 C-2.99 9 -3.98 9 -5 9 C-3.76067171 5.56801397 -2.49698489 2.69674368 0 0 Z " fill="#242025" transform="translate(73,197)"/>
<path d="M0 0 C1.1875 1.875 1.1875 1.875 2 4 C2.680625 4.495 3.36125 4.99 4.0625 5.5 C6.3165808 7.24509481 6.61851514 8.23423473 7 11 C7.99 11 8.98 11 10 11 C9.67 12.98 9.34 14.96 9 17 C10.65 16.34 12.3 15.68 14 15 C14.8125 16.625 14.8125 16.625 15 19 C12.6875 22.25 12.6875 22.25 10 25 C9.34 25 8.68 25 8 25 C8 24.01 8 23.02 8 22 C7.01 22 6.02 22 5 22 C4.67 21.01 4.34 20.02 4 19 C3.01 19 2.02 19 1 19 C1.33 18.01 1.66 17.02 2 16 C0.02 15.67 -1.96 15.34 -4 15 C-4.33 13.35 -4.66 11.7 -5 10 C-5.639375 9.855625 -6.27875 9.71125 -6.9375 9.5625 C-9 9 -9 9 -10 8 C-10.26587831 4.94239943 -10.43409881 2.79159195 -8.9375 0.0625 C-5.75043615 -1.68524469 -3.39721645 -0.92651358 0 0 Z M-6 2 C-6.33 3.65 -6.66 5.3 -7 7 C-5.515 7.99 -5.515 7.99 -4 9 C-2.68 7.35 -1.36 5.7 0 4 C-2.81509993 1.7226499 -2.81509993 1.7226499 -6 2 Z M0 8 C-0.66 8.66 -1.32 9.32 -2 10 C-2 10.99 -2 11.98 -2 13 C-0.68 12.67 0.64 12.34 2 12 C2 10.68 2 9.36 2 8 C1.34 8 0.68 8 0 8 Z " fill="#1D1C20" transform="translate(57,179)"/>
<path d="M0 0 C3.85321207 1.56982714 6.08612851 4.0819777 9 7 C11.04838636 8.77186762 13.1043406 10.52052585 15.1875 12.25 C20.26078539 16.49453518 25.20513316 20.84171004 30.07421875 25.3203125 C31.89992258 27.0544992 31.89992258 27.0544992 34 28 C34 28.66 34 29.32 34 30 C27.07 30 20.14 30 13 30 C12.48065609 40.63843016 12.48065609 40.63843016 15.625 50.53125 C17.69942447 52.33935708 17.69942447 52.33935708 21 54 C20.34 54.66 19.68 55.32 19 56 C18.01 55.34 17.02 54.68 16 54 C14.515 54.495 14.515 54.495 13 55 C11.04051671 49.27644998 10.72452863 44.21122407 10.8125 38.1875 C10.81314453 37.32962891 10.81378906 36.47175781 10.81445312 35.58789062 C10.85910689 29.28178621 10.85910689 29.28178621 12 27 C16.95 27.33 21.9 27.66 27 28 C25.75282088 24.25846263 23.90112219 22.62482484 21 20 C20.01 19.67 19.02 19.34 18 19 C18 18.34 18 17.68 18 17 C17.443125 16.773125 16.88625 16.54625 16.3125 16.3125 C13.36276727 14.63832737 11.3626116 12.42167689 9 10 C6.06374576 7.43077754 3.86837407 6.53727418 0 6 C0 4.02 0 2.04 0 0 Z " fill="#CFE12D" transform="translate(129,56)"/>
<path d="M0 0 C5.17558851 2.73254127 10.07433663 5.42442428 14.17578125 9.63671875 C14.17578125 10.95671875 14.17578125 12.27671875 14.17578125 13.63671875 C10.09298508 12.36985112 6.44569865 10.83095849 2.67578125 8.82421875 C-3.96612854 5.42816688 -10.76080471 2.99815599 -17.82421875 0.63671875 C-17.18484375 0.51296875 -16.54546875 0.38921875 -15.88671875 0.26171875 C-15.20609375 0.05546875 -14.52546875 -0.15078125 -13.82421875 -0.36328125 C-13.49421875 -1.02328125 -13.16421875 -1.68328125 -12.82421875 -2.36328125 C-13.48421875 -2.69328125 -14.14421875 -3.02328125 -14.82421875 -3.36328125 C-9.54495425 -5.12303608 -4.83437843 -2.33360729 0 0 Z " fill="#121214" transform="translate(176.82421875,14.36328125)"/>
<path d="M0 0 C-0.66 1.32 -1.32 2.64 -2 4 C-1.01 4 -0.02 4 1 4 C1.12375 3.360625 1.2475 2.72125 1.375 2.0625 C1.684375 1.0415625 1.684375 1.0415625 2 0 C2.66 -0.33 3.32 -0.66 4 -1 C4.66 -0.34 5.32 0.32 6 1 C5.34 1.99 4.68 2.98 4 4 C5.65 3.67 7.3 3.34 9 3 C5.28136647 6.21154714 1.44495332 8.46915584 -3 10.5 C-3.97598145 10.95064819 -3.97598145 10.95064819 -4.97167969 11.41040039 C-19.61049919 18 -19.61049919 18 -27 18 C-27 17.34 -27 16.68 -27 16 C-24.73050898 15.32844651 -22.4596039 14.6626037 -20.1875 14 C-18.29064453 13.443125 -18.29064453 13.443125 -16.35546875 12.875 C-13 12 -13 12 -10 12 C-10.66 11.67 -11.32 11.34 -12 11 C-12 10.34 -12 9.68 -12 9 C-11.34 9 -10.68 9 -10 9 C-9.5359375 8.0409375 -9.5359375 8.0409375 -9.0625 7.0625 C-8 5 -8 5 -7 4 C-7.99 4 -8.98 4 -10 4 C-10 3.34 -10 2.68 -10 2 C-3.375 -1.125 -3.375 -1.125 0 0 Z " fill="#0B0C0D" transform="translate(176,219)"/>
<path d="M0 0 C0.33 0.99 0.66 1.98 1 3 C1.78375 2.814375 2.5675 2.62875 3.375 2.4375 C6 2 6 2 8 3 C8 4.98 8 6.96 8 9 C2.33663366 10.93069307 2.33663366 10.93069307 -0.125 11.4375 C-2.14805883 11.92068803 -2.14805883 11.92068803 -4 13.5625 C-6 15 -6 15 -10 15 C-11.62950412 10.87831311 -12.26264601 8.29299643 -11 4 C-9.5459375 3.814375 -9.5459375 3.814375 -8.0625 3.625 C-6.5465625 3.315625 -6.5465625 3.315625 -5 3 C-4.67 2.34 -4.34 1.68 -4 1 C-2.68 1.33 -1.36 1.66 0 2 C0 1.34 0 0.68 0 0 Z M1 5 C1 5.99 1 6.98 1 8 C2.32 7.67 3.64 7.34 5 7 C5 6.34 5 5.68 5 5 C3.68 5 2.36 5 1 5 Z M-9 6 C-8.67 7.98 -8.34 9.96 -8 12 C-7.01 11.67 -6.02 11.34 -5 11 C-5.33 9.35 -5.66 7.7 -6 6 C-6.99 6 -7.98 6 -9 6 Z " fill="#2D292E" transform="translate(172,202)"/>
<path d="M0 0 C4.9962491 3.02404551 9.09630787 6.73910752 13.39453125 10.6796875 C16.54184574 13.48254328 19.82608134 16.05077216 23.1875 18.58984375 C25 20 25 20 27 22 C26.73813817 26.71351295 24.31544752 30.68455248 21 34 C18.32941149 34.14115161 15.67567762 34.04247107 13 34 C13 37.96 13 41.92 13 46 C11.06604999 42.13209997 10.76710647 40.8499541 10.875 36.75 C10.89304688 35.85796875 10.91109375 34.9659375 10.9296875 34.046875 C10.96449219 33.03367187 10.96449219 33.03367187 11 32 C13.97 32 16.94 32 20 32 C20.268125 31.2575 20.53625 30.515 20.8125 29.75 C21.94229421 27.13363446 23.20893202 25.19812889 25 23 C24.41734375 22.73574219 23.8346875 22.47148437 23.234375 22.19921875 C20.91089289 20.95217503 19.20412895 19.57686849 17.25 17.8125 C16.55777344 17.19246094 15.86554688 16.57242188 15.15234375 15.93359375 C14.44207031 15.29550781 13.73179687 14.65742188 13 14 C11.60536242 12.79028674 10.20956144 11.58191319 8.8125 10.375 C5.74749411 7.68480745 2.75329179 5.0114129 0 2 C0 1.34 0 0.68 0 0 Z " fill="#282D05" transform="translate(167,123)"/>
<path d="M0 0 C0.33 0.66 0.66 1.32 1 2 C-8.405 2.495 -8.405 2.495 -18 3 C-18.78734742 11.86421488 -18.78734742 11.86421488 -15.69140625 19.88964844 C-12.41807944 23.48677556 -8.7052369 26.54494415 -4.87402344 29.52783203 C-1.83107804 31.91826464 1.07791633 34.46434928 4 37 C3.67 37.99 3.34 38.98 3 40 C2.44054687 39.48953125 1.88109375 38.9790625 1.3046875 38.453125 C0.50289062 37.72609375 -0.29890625 36.9990625 -1.125 36.25 C-2.0221875 35.41855469 -2.919375 34.58710937 -3.84375 33.73046875 C-6.05041648 31.74831775 -8.33382977 30.03753918 -10.78125 28.36328125 C-20.30462015 21.57806048 -20.30462015 21.57806048 -21.61914062 16.70458984 C-22.21670658 11.25878641 -21.58979591 6.56093288 -21 1 C-10.605 0.505 -10.605 0.505 0 0 Z " fill="#464D08" transform="translate(163,85)"/>
<path d="M0 0 C0.66 0 1.32 0 2 0 C2.66 2.31 3.32 4.62 4 7 C5.32 7.33 6.64 7.66 8 8 C8 8.66 8 9.32 8 10 C2.25 11 2.25 11 0 11 C-0.99 11.66 -1.98 12.32 -3 13 C-5.6875 12.625 -5.6875 12.625 -8 12 C-8 11.01 -8 10.02 -8 9 C-6.35 9.33 -4.7 9.66 -3 10 C-3.33 8.35 -3.66 6.7 -4 5 C-5.98 5 -7.96 5 -10 5 C-9.67 4.01 -9.34 3.02 -9 2 C-3.25 1 -3.25 1 -1 1 C-0.67 0.67 -0.34 0.34 0 0 Z " fill="#2A252A" transform="translate(151,209)"/>
<path d="M0 0 C0.66 0.33 1.32 0.66 2 1 C2.34153937 2.66500443 2.67449498 4.33178677 3 6 C3.66 6.66 4.32 7.32 5 8 C5 9.32 5 10.64 5 12 C2.11562221 10.70700306 0.12780579 9.34058637 -2 7 C-5.22404978 8.66954819 -5.22404978 8.66954819 -5.6875 11.625 C-5.790625 12.40875 -5.89375 13.1925 -6 14 C-4.02 13.34 -2.04 12.68 0 12 C0.33 12.99 0.66 13.98 1 15 C0 17 0 17 -1.75 17.9375 C-4 18 -4 18 -6.75 15.875 C-9 13 -9 13 -9.421875 10.58984375 C-8.83794087 7.005137 -7.27161371 5.95868345 -4.5 3.6875 C-3.6646875 2.99011719 -2.829375 2.29273438 -1.96875 1.57421875 C-1.3190625 1.05472656 -0.669375 0.53523437 0 0 Z " fill="#2C2A2D" transform="translate(203,180)"/>
<path d="M0 0 C3.85321207 1.56982714 6.08612851 4.0819777 9 7 C11.04837737 8.77185984 13.10475902 10.52004411 15.1875 12.25 C19.43106198 15.81498121 23.65534838 19.39686346 27.8125 23.0625 C29.02873047 24.13177734 29.02873047 24.13177734 30.26953125 25.22265625 C32 27 32 27 32 29 C30.35 28.67 28.7 28.34 27 28 C26.67 27.01 26.34 26.02 26 25 C22.55835627 21.17302847 22.55835627 21.17302847 18 19 C18 18.34 18 17.68 18 17 C17.443125 16.773125 16.88625 16.54625 16.3125 16.3125 C13.36276727 14.63832737 11.3626116 12.42167689 9 10 C6.06374576 7.43077754 3.86837407 6.53727418 0 6 C0 4.02 0 2.04 0 0 Z " fill="#DAEA3A" transform="translate(129,56)"/>
<path d="M0 0 C0.99 0 1.98 0 3 0 C3.33 1.65 3.66 3.3 4 5 C4.66 5 5.32 5 6 5 C5.47731534 7.76276177 4.89130413 10.3260876 4 13 C5.32 13.66 6.64 14.32 8 15 C5 15 5 15 2 13 C2 12.34 2 11.68 2 11 C1.01 11 0.02 11 -1 11 C-1.33 10.34 -1.66 9.68 -2 9 C-2.99 9 -3.98 9 -5 9 C-3.76067171 5.56801397 -2.49698489 2.69674368 0 0 Z " fill="#333035" transform="translate(73,197)"/>
<path d="M0 0 C4.37934119 0.51958285 8.68803391 1.05675742 13 2 C12 5 12 5 10 7 C10.32041397 9.60280568 10.32041397 9.60280568 11 12 C10.01 12 9.02 12 8 12 C7.67 11.34 7.34 10.68 7 10 C5.68 10.33 4.36 10.66 3 11 C3.66 8.03 4.32 5.06 5 2 C3.02 2 1.04 2 -1 2 C-0.67 1.34 -0.34 0.68 0 0 Z " fill="#322F33" transform="translate(92,208)"/>
<path d="M0 0 C5.70985379 3.65119902 10.94464135 7.48244546 16 12 C14.64062915 14.8605891 13.35479531 16.85927699 11 19 C10.67 16.36 10.34 13.72 10 11 C9.21625 10.855625 8.4325 10.71125 7.625 10.5625 C5 10 5 10 3 9 C1.99290115 6.9858023 1.52871824 5.18096274 1 3 C0.67 2.01 0.34 1.02 0 0 Z " fill="#D9EB26" transform="translate(176,134)"/>
<path d="M0 0 C0.99 0.33 1.98 0.66 3 1 C2.67 1.66 2.34 2.32 2 3 C3.65 2.34 5.3 1.68 7 1 C7.8125 2.625 7.8125 2.625 8 5 C5.6875 8.25 5.6875 8.25 3 11 C2.34 11 1.68 11 1 11 C1 10.01 1 9.02 1 8 C0.01 8 -0.98 8 -2 8 C-2.125 5.125 -2.125 5.125 -2 2 C-1.34 1.34 -0.68 0.68 0 0 Z " fill="#3E3C41" transform="translate(64,193)"/>
<path d="M0 0 C3.27045794 1.45108156 5.61689713 3.27697957 8.25 5.6875 C9.41595703 6.74517578 9.41595703 6.74517578 10.60546875 7.82421875 C11.39566406 8.54222656 12.18585938 9.26023437 13 10 C14.51760957 11.33700149 16.03819708 12.67063458 17.5625 14 C18.22378906 14.5775 18.88507813 15.155 19.56640625 15.75 C20.03949219 16.1625 20.51257813 16.575 21 17 C20.01 17.33 19.02 17.66 18 18 C17.67 17.01 17.34 16.02 17 15 C14.525 14.505 14.525 14.505 12 14 C12 13.01 12 12.02 12 11 C10.68 10.67 9.36 10.34 8 10 C8 9.34 8 8.68 8 8 C7.38125 7.87625 6.7625 7.7525 6.125 7.625 C4 7 4 7 2 5 C1.01 4.34 0.02 3.68 -1 3 C-0.67 2.01 -0.34 1.02 0 0 Z " fill="#D9EB32" transform="translate(153,114)"/>
<path d="M0 0 C4.6875 3.61328125 4.6875 3.61328125 6 5 C6 5.99 6 6.98 6 8 C2.20839703 8.05786668 -1.58309311 8.09355054 -5.375 8.125 C-6.99535156 8.15013672 -6.99535156 8.15013672 -8.6484375 8.17578125 C-9.6796875 8.18222656 -10.7109375 8.18867187 -11.7734375 8.1953125 C-13.20308838 8.21102295 -13.20308838 8.21102295 -14.66162109 8.22705078 C-17 8 -17 8 -19 6 C-12.07 6 -5.14 6 2 6 C1.34 5.01 0.68 4.02 0 3 C0 2.01 0 1.02 0 0 Z " fill="#1A1B08" transform="translate(162,81)"/>
<path d="M0 0 C1.58246707 -0.08153933 3.16616273 -0.13943557 4.75 -0.1875 C6.07257813 -0.23970703 6.07257813 -0.23970703 7.421875 -0.29296875 C10.44671583 0.05076316 11.75583602 1.00227459 14 3 C11.50935112 3.68707555 9.62113708 4 7 4 C5.30280873 4.94726954 3.63064764 5.94228261 2 7 C2 6.34 2 5.68 2 5 C-0.31 5 -2.62 5 -5 5 C-4.67 4.34 -4.34 3.68 -4 3 C-0.9375 2.375 -0.9375 2.375 2 2 C1.34 1.34 0.68 0.68 0 0 Z " fill="#040307" transform="translate(140,5)"/>
<path d="M0 0 C7.00217628 4.35690968 7.00217628 4.35690968 9 8 C8.67 8.99 8.34 9.98 8 11 C6.62437146 9.71034824 5.29233607 8.37310707 4 7 C4 6.34 4 5.68 4 5 C1.25038489 4.05392193 1.25038489 4.05392193 -2 4 C-4.8971941 6.31273442 -4.8971941 6.31273442 -7 9 C-7 6 -7 6 -5.46875 4.39453125 C-4.49421875 3.61142578 -4.49421875 3.61142578 -3.5 2.8125 C-2.8503125 2.28269531 -2.200625 1.75289062 -1.53125 1.20703125 C-1.0259375 0.80871094 -0.520625 0.41039062 0 0 Z " fill="#2E320C" transform="translate(126,49)"/>
<path d="M0 0 C0.33 0.66 0.66 1.32 1 2 C2.98 1.67 4.96 1.34 7 1 C4.66666667 3.33333333 2.33333333 5.66666667 0 8 C0.33 8.66 0.66 9.32 1 10 C-1.31 9.67 -3.62 9.34 -6 9 C-5.67 8.01 -5.34 7.02 -5 6 C-5.33 5.34 -5.66 4.68 -6 4 C-4.02 3.67 -2.04 3.34 0 3 C0 2.01 0 1.02 0 0 Z " fill="#050507" transform="translate(165,221)"/>
<path d="M0 0 C0.66 0 1.32 0 2 0 C1.979375 1.093125 1.95875 2.18625 1.9375 3.3125 C1.81455548 6.94384191 1.81455548 6.94384191 3 10 C2.375 12.5625 2.375 12.5625 1 15 C-1.3125 16.0625 -1.3125 16.0625 -4 17 C-5.70294787 18.28667172 -7.37946188 19.61096733 -9 21 C-9.33 20.34 -9.66 19.68 -10 19 C-9.36191406 18.63390625 -8.72382812 18.2678125 -8.06640625 17.890625 C-2.76299846 14.43935786 -2.76299846 14.43935786 -0.1796875 8.86328125 C0.03902639 5.88242264 0.12255206 2.98536808 0 0 Z " fill="#151415" transform="translate(108,91)"/>
<path d="M0 0 C0.2475 0.556875 0.495 1.11375 0.75 1.6875 C2.21606015 4.39971127 4.02989471 6.63587365 6 9 C3.5625 8.625 3.5625 8.625 1 8 C0.67 7.34 0.34 6.68 0 6 C-0.99 6.33 -1.98 6.66 -3 7 C-3 7.66 -3 8.32 -3 9 C-4.32 9 -5.64 9 -7 9 C-6.8125 6.625 -6.8125 6.625 -6 4 C-3.5 2.8125 -3.5 2.8125 -1 2 C-0.67 1.34 -0.34 0.68 0 0 Z " fill="#3D3A3D" transform="translate(193,189)"/>
<path d="M0 0 C0.99 0.33 1.98 0.66 3 1 C2.835 1.61875 2.67 2.2375 2.5 2.875 C1.92365356 4.96063386 1.92365356 4.96063386 2 7 C3.65 5.68 5.3 4.36 7 3 C7.33 3.99 7.66 4.98 8 6 C7.01 6.33 6.02 6.66 5 7 C3.31461399 8.99665314 3.31461399 8.99665314 2 11 C0.68 10.67 -0.64 10.34 -2 10 C-1.85950482 8.52031676 -1.71245174 7.04125484 -1.5625 5.5625 C-1.48128906 4.73878906 -1.40007812 3.91507813 -1.31640625 3.06640625 C-1 1 -1 1 0 0 Z " fill="#1D1B1F" transform="translate(79,200)"/>
<path d="M0 0 C0.66 0.33 1.32 0.66 2 1 C1.3503125 1.70576172 1.3503125 1.70576172 0.6875 2.42578125 C0.130625 3.04839844 -0.42625 3.67101563 -1 4.3125 C-1.556875 4.92738281 -2.11375 5.54226562 -2.6875 6.17578125 C-4.29201498 8.03131335 -4.29201498 8.03131335 -4 11 C-4.66 11 -5.32 11 -6 11 C-5.67 11.99 -5.34 12.98 -5 14 C-5.66 14 -6.32 14 -7 14 C-7.66 13.34 -8.32 12.68 -9 12 C-9.99 12.66 -10.98 13.32 -12 14 C-10.41332422 10.09714233 -7.86649519 7.66479018 -4.875 4.75 C-3.96492188 3.85796875 -3.05484375 2.9659375 -2.1171875 2.046875 C-1.41851562 1.37140625 -0.71984375 0.6959375 0 0 Z " fill="#181819" transform="translate(45,30)"/>
<path d="M0 0 C3.63 0 7.26 0 11 0 C10.67 0.66 10.34 1.32 10 2 C7.36 2 4.72 2 2 2 C2 5.96 2 9.92 2 14 C-0.56616632 8.86766736 -0.14967441 5.6876277 0 0 Z " fill="#202203" transform="translate(178,155)"/>
<path d="M0 0 C1.4783226 2.95664519 1.06032783 5.74229737 1 9 C-0.32 9.33 -1.64 9.66 -3 10 C-3 8.68 -3 7.36 -3 6 C-3.99 5.67 -4.98 5.34 -6 5 C-3.375 1.125 -3.375 1.125 0 0 Z " fill="#3C373D" transform="translate(87,205)"/>
<path d="M0 0 C0.99 0.495 0.99 0.495 2 1 C2.25694509 3.28330749 2.40610225 5.57920012 2.5 7.875 C2.62344542 13.28444378 2.62344542 13.28444378 5 18 C3.35 17.67 1.7 17.34 0 17 C0 11.39 0 5.78 0 0 Z " fill="#2C310B" transform="translate(143,88)"/>
<path d="M0 0 C2.97 0.33 5.94 0.66 9 1 C8.67 1.99 8.34 2.98 8 4 C8.33 4.99 8.66 5.98 9 7 C6.69 7 4.38 7 2 7 C2 6.34 2 5.68 2 5 C1.34 4.67 0.68 4.34 0 4 C0 2.68 0 1.36 0 0 Z " fill="#040408" transform="translate(156,8)"/>
<path d="M0 0 C-13.6332574 5.55580866 -13.6332574 5.55580866 -20 6 C-20 5.34 -20 4.68 -20 4 C-17.23208055 3.13521219 -14.46134374 2.28288326 -11.6875 1.4375 C-10.90181641 1.19064453 -10.11613281 0.94378906 -9.30664062 0.68945312 C-8.54931641 0.46064453 -7.79199219 0.23183594 -7.01171875 -0.00390625 C-5.96697388 -0.32597046 -5.96697388 -0.32597046 -4.90112305 -0.65454102 C-3 -1 -3 -1 0 0 Z " fill="#1D1C1E" transform="translate(169,231)"/>
<path d="M0 0 C2.97 0 5.94 0 9 0 C9.33 1.65 9.66 3.3 10 5 C9.01 5 8.02 5 7 5 C7 4.34 7 3.68 7 3 C2.545 3.495 2.545 3.495 -2 4 C-1.34 2.68 -0.68 1.36 0 0 Z " fill="#413D40" transform="translate(116,212)"/>
<path d="M0 0 C0.99 0.495 0.99 0.495 2 1 C2.625 3.0625 2.625 3.0625 3 5 C4.98 4.34 6.96 3.68 9 3 C9.33 3.99 9.66 4.98 10 6 C9 8 9 8 7.25 8.9375 C5 9 5 9 2.25 6.8125 C0 4 0 4 0 0 Z " fill="#1D1D21" transform="translate(194,189)"/>
<path d="M0 0 C2.64 1.98 5.28 3.96 8 6 C6.38262276 9.23475448 5.52370777 10.70572021 3 13 C2.87625 11.783125 2.7525 10.56625 2.625 9.3125 C2.21108694 5.93520941 1.45426549 3.10243305 0 0 Z " fill="#CADC34" transform="translate(184,140)"/>
<path d="M0 0 C0 0.66 0 1.32 0 2 C-0.66 2.66 -1.32 3.32 -2 4 C-2.6425235 6.06874034 -2.6425235 6.06874034 -3 8 C-3.5775 7.690625 -4.155 7.38125 -4.75 7.0625 C-6.84904107 6.07128616 -8.75074138 5.52451199 -11 5 C-9.54462432 4.16151196 -8.08559627 3.32936066 -6.625 2.5 C-5.81289062 2.0359375 -5.00078125 1.571875 -4.1640625 1.09375 C-2 0 -2 0 0 0 Z " fill="#17151A" transform="translate(73,13)"/>
<path d="M0 0 C0.33 0.66 0.66 1.32 1 2 C1.99 2 2.98 2 4 2 C3.67 4.64 3.34 7.28 3 10 C2.01 10 1.02 10 0 10 C0 8.68 0 7.36 0 6 C-0.99 5.67 -1.98 5.34 -3 5 C-2.34 4.34 -1.68 3.68 -1 3 C-0.67 2.01 -0.34 1.02 0 0 Z " fill="#4C484D" transform="translate(128,213)"/>
<path d="M0 0 C0.66 0 1.32 0 2 0 C2.66 0.99 3.32 1.98 4 3 C4.66 2.67 5.32 2.34 6 2 C6.33 3.98 6.66 5.96 7 8 C8.65 7.67 10.3 7.34 12 7 C11.67 7.66 11.34 8.32 11 9 C9.02 9 7.04 9 5 9 C4.67 7.68 4.34 6.36 4 5 C2.68 4.67 1.36 4.34 0 4 C0 2.66666667 0 1.33333333 0 0 Z " fill="#2A272B" transform="translate(48,184)"/>
<path d="M0 0 C0.66 0.33 1.32 0.66 2 1 C1.52354792 5.28806873 0.34097516 7.26647487 -3 10 C-3.66 10 -4.32 10 -5 10 C-5 7 -5 7 -3.5 5.3125 C-3.005 4.879375 -2.51 4.44625 -2 4 C-2.66 4 -3.32 4 -4 4 C-4 3.34 -4 2.68 -4 2 C-2.125 0.9375 -2.125 0.9375 0 0 Z " fill="#222024" transform="translate(70,194)"/>
<path d="M0 0 C3.36591866 1.44253657 5.51047079 3.33264727 8 6 C4.71023192 7.09658936 3.28696233 6.79953138 0 6 C0 4.02 0 2.04 0 0 Z " fill="#D7E82E" transform="translate(129,56)"/>
<path d="M0 0 C0.66 0.66 1.32 1.32 2 2 C0.02 4.31 -1.96 6.62 -4 9 C-4.66 7.68 -5.32 6.36 -6 5 C-3.375 1.125 -3.375 1.125 0 0 Z " fill="#100E0F" transform="translate(213,194)"/>
<path d="M0 0 C0.33 0.66 0.66 1.32 1 2 C1.66 2.33 2.32 2.66 3 3 C3.33 3.66 3.66 4.32 4 5 C3.01 5 2.02 5 1 5 C0.01 6.485 0.01 6.485 -1 8 C-1.66 7.01 -2.32 6.02 -3 5 C-5.05003955 3.80767387 -5.05003955 3.80767387 -7 3 C-4.69 2.01 -2.38 1.02 0 0 Z " fill="#050507" transform="translate(66,18)"/>
<path d="M0 0 C0.66 0.66 1.32 1.32 2 2 C1.67 2.99 1.34 3.98 1 5 C0.01 5 -0.98 5 -2 5 C-2.33 5.66 -2.66 6.32 -3 7 C-5.5625 7.625 -5.5625 7.625 -8 8 C-8 7.01 -8 6.02 -8 5 C-6.25 3.61328125 -6.25 3.61328125 -4 2.3125 C-3.2575 1.87550781 -2.515 1.43851563 -1.75 0.98828125 C-1.1725 0.66214844 -0.595 0.33601562 0 0 Z " fill="#121013" transform="translate(196,205)"/>
<path d="M0 0 C0 0.99 0 1.98 0 3 C-0.5775 3.2475 -1.155 3.495 -1.75 3.75 C-4.3002997 5.16683317 -6.01785701 6.87627537 -8 9 C-8.33 8.34 -8.66 7.68 -9 7 C-4.53191489 0 -4.53191489 0 0 0 Z " fill="#272429" transform="translate(67,190)"/>
<path d="M0 0 C0.33 0.99 0.66 1.98 1 3 C-0.1446875 3.6496875 -0.1446875 3.6496875 -1.3125 4.3125 C-3.60624421 5.75275799 -5.32958567 6.89000295 -7 9 C-7 9.99 -7 10.98 -7 12 C-8.875 12.625 -8.875 12.625 -11 13 C-11.66 12.34 -12.32 11.68 -13 11 C-8.73958774 7.23645964 -4.48151089 3.50118038 0 0 Z " fill="#161617" transform="translate(78,128)"/>
<path d="M0 0 C0.66 0.33 1.32 0.66 2 1 C1.51789062 1.30292969 1.03578125 1.60585938 0.5390625 1.91796875 C-3.36943637 4.51034045 -5.77751371 6.24588665 -7 11 C-7.66 10.67 -8.32 10.34 -9 10 C-9.99 9.67 -10.98 9.34 -12 9 C-10.37680325 7.68527053 -8.751385 6.37328338 -7.125 5.0625 C-6.22007813 4.33160156 -5.31515625 3.60070312 -4.3828125 2.84765625 C-2 1 -2 1 0 0 Z " fill="#1E1D21" transform="translate(60,19)"/>
<path d="M0 0 C1.65 0.99 3.3 1.98 5 3 C4.34 4.32 3.68 5.64 3 7 C0.36 6.67 -2.28 6.34 -5 6 C-3.35 4.02 -1.7 2.04 0 0 Z " fill="#0A090E" transform="translate(148,6)"/>
<path d="M0 0 C0.99 0.66 1.98 1.32 3 2 C1.68 2 0.36 2 -1 2 C-0.40138258 4.35171131 0.26924352 6.6859378 1 9 C1.66 9.33 2.32 9.66 3 10 C3 10.66 3 11.32 3 12 C1.68 12 0.36 12 -1 12 C-2.60642307 7.9366946 -3.44504746 5.21472177 -2 1 C-1.34 0.67 -0.68 0.34 0 0 Z " fill="#1C191F" transform="translate(163,205)"/>
<path d="M0 0 C0.33 0.99 0.66 1.98 1 3 C3.01508358 3.73323796 3.01508358 3.73323796 5 4 C3.35 4 1.7 4 0 4 C0.33 6.64 0.66 9.28 1 12 C-0.5 10.8125 -0.5 10.8125 -2 9 C-2.1875 6.3125 -2.1875 6.3125 -2 4 C-2.66 4 -3.32 4 -4 4 C-4 3.01 -4 2.02 -4 1 C-2.68 1.33 -1.36 1.66 0 2 C0 1.34 0 0.68 0 0 Z " fill="#1F1C22" transform="translate(172,202)"/>
<path d="M0 0 C1.32 0.33 2.64 0.66 4 1 C3.43628586 4.26954202 2.50037734 5.82575883 0 8 C0 7.01 0 6.02 0 5 C-1.32 5.33 -2.64 5.66 -4 6 C-2.68 4.02 -1.36 2.04 0 0 Z " fill="#0F0D0E" transform="translate(218,183)"/>
<path d="M0 0 C0.33 0.99 0.66 1.98 1 3 C-1 6 -1 6 -3.25 6.875 C-6.83875453 8.34312685 -9.09975306 10.43699108 -12 13 C-12 12.01 -12 11.02 -12 10 C-9.62890625 7.7734375 -9.62890625 7.7734375 -6.5625 5.375 C-5.55316406 4.57835938 -4.54382813 3.78171875 -3.50390625 2.9609375 C-2.67761719 2.31382813 -1.85132812 1.66671875 -1 1 C-0.67 0.67 -0.34 0.34 0 0 Z " fill="#262525" transform="translate(96,112)"/>
<path d="M0 0 C4.83256305 0.41421969 6.82679218 2.46413986 10 6 C9.67 6.99 9.34 7.98 9 9 C7.49704815 7.69088122 5.99770689 6.37761608 4.5 5.0625 C3.6646875 4.33160156 2.829375 3.60070312 1.96875 2.84765625 C1.3190625 2.23792969 0.669375 1.62820312 0 1 C0 0.67 0 0.34 0 0 Z " fill="#3C4206" transform="translate(157,116)"/>
<path d="M0 0 C3.46681577 0.18909904 6.06424759 0.33591765 8.9375 2.375 C10 4 10 4 10 7 C9.34 7 8.68 7 8 7 C7.4225 6.360625 6.845 5.72125 6.25 5.0625 C3.51617726 2.55649582 1.63214398 2.33019491 -2 2 C-1.34 1.34 -0.68 0.68 0 0 Z " fill="#212505" transform="translate(129,158)"/>
<path d="M0 0 C6.75 2.625 6.75 2.625 9 6 C6.33333333 6 3.66666667 6 1 6 C0.67 4.02 0.34 2.04 0 0 Z " fill="#DBEC2A" transform="translate(141,105)"/>
<path d="M0 0 C-0.66 1.32 -1.32 2.64 -2 4 C-4.64 4 -7.28 4 -10 4 C-10 3.34 -10 2.68 -10 2 C-3.375 -1.125 -3.375 -1.125 0 0 Z " fill="#100E12" transform="translate(176,219)"/>
<path d="M0 0 C2.31 0.33 4.62 0.66 7 1 C6.34 2.65 5.68 4.3 5 6 C3.35 5.67 1.7 5.34 0 5 C-0.33 4.01 -0.66 3.02 -1 2 C-0.67 1.34 -0.34 0.68 0 0 Z " fill="#0E0E11" transform="translate(103,225)"/>
<path d="M0 0 C3.36591866 1.44253657 5.51047079 3.33264727 8 6 C7.67 6.99 7.34 7.98 7 9 C1.21538462 4.56923077 1.21538462 4.56923077 0.125 1.6875 C0.08375 1.130625 0.0425 0.57375 0 0 Z " fill="#2C3306" transform="translate(154,75)"/>
<path d="M0 0 C6.57142857 5 6.57142857 5 8 10 C4.20401451 8.50871999 2.28279601 6.34266559 0 3 C0 2.01 0 1.02 0 0 Z " fill="#45480C" transform="translate(135,57)"/>
<path d="M0 0 C0.66 0.33 1.32 0.66 2 1 C2 1.99 2 2.98 2 4 C1.2575 4.0825 0.515 4.165 -0.25 4.25 C-3.51221354 5.1396946 -4.80954878 6.48503749 -7 9 C-7 6 -7 6 -5.46875 4.39453125 C-4.49421875 3.61142578 -4.49421875 3.61142578 -3.5 2.8125 C-2.8503125 2.28269531 -2.200625 1.75289062 -1.53125 1.20703125 C-1.0259375 0.80871094 -0.520625 0.41039062 0 0 Z " fill="#1A1A1C" transform="translate(126,49)"/>
<path d="M0 0 C0.33 0.99 0.66 1.98 1 3 C0.34 3.66 -0.32 4.32 -1 5 C-0.67 5.66 -0.34 6.32 0 7 C-2 8 -2 8 -5 8 C-5 5 -5 5 -2.5 2.3125 C-1.675 1.549375 -0.85 0.78625 0 0 Z " fill="#020205" transform="translate(46,31)"/>
<path d="M0 0 C0.99 0.33 1.98 0.66 3 1 C3 2.98 3 4.96 3 7 C0.69 6.67 -1.62 6.34 -4 6 C-2 4 -2 4 0 3 C0 2.01 0 1.02 0 0 Z " fill="#111113" transform="translate(96,230)"/>
<path d="M0 0 C1.33998047 0.31324219 1.33998047 0.31324219 2.70703125 0.6328125 C3.60808594 0.83648437 4.50914063 1.04015625 5.4375 1.25 C6.46810547 1.50136719 6.46810547 1.50136719 7.51953125 1.7578125 C7.51953125 2.0878125 7.51953125 2.4178125 7.51953125 2.7578125 C-0.90904018 4.18638393 -0.90904018 4.18638393 -5.48046875 1.7578125 C-2.48046875 -0.2421875 -2.48046875 -0.2421875 0 0 Z " fill="#010204" transform="translate(112.48046875,226.2421875)"/>
<path d="M0 0 C2.475 0.495 2.475 0.495 5 1 C4.67 2.98 4.34 4.96 4 7 C3.01 6.67 2.02 6.34 1 6 C0.67 4.02 0.34 2.04 0 0 Z " fill="#464347" transform="translate(139,213)"/>
<path d="M0 0 C-0.99 1.485 -0.99 1.485 -2 3 C-5.125 3.1875 -5.125 3.1875 -8 3 C-7.67 2.01 -7.34 1.02 -7 0 C-4.3333581 -1.33332095 -2.83319697 -0.67102033 0 0 Z " fill="#312F32" transform="translate(149,211)"/>
<path d="M0 0 C0.99 0.66 1.98 1.32 3 2 C3 2.66 3 3.32 3 4 C2.34 4 1.68 4 1 4 C1 4.66 1 5.32 1 6 C-0.32 6 -1.64 6 -3 6 C-2.625 3.5625 -2.625 3.5625 -2 1 C-1.34 0.67 -0.68 0.34 0 0 Z " fill="#615D5F" transform="translate(189,192)"/>
<path d="M0 0 C0.66 0 1.32 0 2 0 C2 3.3 2 6.6 2 10 C1.01 10.495 1.01 10.495 0 11 C-0.19406478 9.35492782 -0.38007935 7.70890406 -0.5625 6.0625 C-0.66691406 5.14597656 -0.77132812 4.22945312 -0.87890625 3.28515625 C-0.91886719 2.53105469 -0.95882812 1.77695312 -1 1 C-0.67 0.67 -0.34 0.34 0 0 Z " fill="#0C1102" transform="translate(125,53)"/>
<path d="M0 0 C1.65 0 3.3 0 5 0 C4.04663979 1.31611677 3.08714226 2.62778961 2.125 3.9375 C1.59132813 4.66839844 1.05765625 5.39929687 0.5078125 6.15234375 C-1 8 -1 8 -3 9 C-2 7 -1 5 0 3 C-0.66 2.67 -1.32 2.34 -2 2 C-1.34 2 -0.68 2 0 2 C0 1.34 0 0.68 0 0 Z " fill="#151418" transform="translate(47,42)"/>
<path d="M0 0 C3 1 3 1 5 4 C5 4.99 5 5.98 5 7 C4.01 7 3.02 7 2 7 C0.5393715 4.35261084 0 3.10551666 0 0 Z " fill="#262327" transform="translate(181,201)"/>
<path d="M0 0 C-4.75 4.875 -4.75 4.875 -7 6 C-7.625 4.125 -7.625 4.125 -8 2 C-5.44123378 -0.55876622 -3.37797483 -1.68898741 0 0 Z " fill="#3A383B" transform="translate(202,186)"/>
<path d="M0 0 C0.625 1.8125 0.625 1.8125 1 4 C0.01 5.485 0.01 5.485 -1 7 C-1.99 7 -2.98 7 -4 7 C-2.92598892 4.08482708 -2.22189824 2.22189824 0 0 Z " fill="#363E07" transform="translate(191,148)"/>
<path d="M0 0 C0.33 1.32 0.66 2.64 1 4 C-0.96466413 5.06775224 -2.96855359 6.06553465 -5 7 C-5.66 6.67 -6.32 6.34 -7 6 C-4.69 4.02 -2.38 2.04 0 0 Z " fill="#171717" transform="translate(105,68)"/>
<path d="M0 0 C0 0.66 0 1.32 0 2 C-0.66 2 -1.32 2 -2 2 C-2.33 2.66 -2.66 3.32 -3 4 C-5.31 3.67 -7.62 3.34 -10 3 C-6.59538535 1.23899242 -3.90650339 0 0 0 Z " fill="#121214" transform="translate(165,222)"/>
<path d="M0 0 C0.99 0.33 1.98 0.66 3 1 C2.67 2.98 2.34 4.96 2 7 C1.01 7 0.02 7 -1 7 C-0.67 4.69 -0.34 2.38 0 0 Z " fill="#2C262D" transform="translate(96,212)"/>
<path d="M0 0 C-0.66 1.32 -1.32 2.64 -2 4 C-2.99 4 -3.98 4 -5 4 C-5.33 2.68 -5.66 1.36 -6 0 C-3.50907189 -1.24546405 -2.58919267 -0.7767578 0 0 Z " fill="#3C3B3F" transform="translate(178,201)"/>
<path d="M0 0 C2 1.25 2 1.25 4 3 C4 4.32 4 5.64 4 7 C3.01 6.67 2.02 6.34 1 6 C-0.1875 3.4375 -0.1875 3.4375 -1 1 C-0.67 0.67 -0.34 0.34 0 0 Z " fill="#211C1F" transform="translate(204,185)"/>
<path d="M0 0 C2.31 1.98 4.62 3.96 7 6 C6.01 6.33 5.02 6.66 4 7 C3.67 6.01 3.34 5.02 3 4 C2.01 4 1.02 4 0 4 C0 2.68 0 1.36 0 0 Z " fill="#C6D537" transform="translate(167,125)"/>
<path d="M0 0 C0.33 0.66 0.66 1.32 1 2 C1.61875 1.79375 2.2375 1.5875 2.875 1.375 C3.57625 1.25125 4.2775 1.1275 5 1 C5.66 1.66 6.32 2.32 7 3 C6.071875 3.1546875 6.071875 3.1546875 5.125 3.3125 C2.63473516 3.87525373 2.63473516 3.87525373 1 7 C0.67 4.69 0.34 2.38 0 0 Z " fill="#272327" transform="translate(122,215)"/>
<path d="M0 0 C0.268125 0.61875 0.53625 1.2375 0.8125 1.875 C1.95556848 4.2995233 1.95556848 4.2995233 5 6 C5 6.66 5 7.32 5 8 C3.35 7.67 1.7 7.34 0 7 C0 4.69 0 2.38 0 0 Z " fill="#1E191E" transform="translate(89,210)"/>
</svg>
