<?xml version="1.0" standalone="no"?>
<!DOCTYPE svg PUBLIC "-//W3C//DTD SVG 20010904//EN"
 "http://www.w3.org/TR/2001/REC-SVG-20010904/DTD/svg10.dtd">
<svg version="1.0" xmlns="http://www.w3.org/2000/svg"
 width="611.000000pt" height="121.000000pt" viewBox="0 0 611.000000 121.000000"
 preserveAspectRatio="xMidYMid meet">

<g transform="translate(0.000000,121.000000) scale(0.100000,-0.100000)"
fill="#FFFFFF" stroke="none">
<path d="M3240 725 l0 -465 50 0 50 0 0 465 0 465 -50 0 -50 0 0 -465z"/>
<path d="M4815 725 l0 -465 53 0 52 0 0 465 0 465 -52 0 -53 0 0 -465z"/>
<path d="M5160 1125 l0 -65 50 0 50 0 0 65 0 65 -50 0 -50 0 0 -65z"/>
<path d="M5498 1073 c-2 -65 -2 -274 0 -465 l3 -348 49 0 50 0 0 50 0 49 43
-42 c47 -47 98 -67 172 -67 110 0 184 49 237 158 32 64 33 72 33 182 0 136
-18 198 -79 267 -57 65 -106 88 -191 87 -83 0 -137 -24 -184 -81 l-31 -38 0
183 0 182 -49 0 -50 0 -3 -117z m395 -246 c55 -42 81 -107 85 -209 3 -58 -1
-104 -12 -140 -40 -139 -188 -191 -287 -101 -55 49 -74 108 -74 224 0 86 3
101 30 155 24 47 39 64 75 82 60 31 134 27 183 -11z"/>
<path d="M1970 1025 l0 -95 -40 0 -40 0 0 -40 c0 -40 0 -40 39 -40 l39 0 4
-232 c3 -206 5 -238 22 -272 28 -55 81 -77 207 -83 l99 -6 0 46 0 45 -91 4
c-134 5 -129 -5 -129 274 l0 224 110 0 110 0 0 40 0 40 -110 0 -110 0 0 95 0
95 -55 0 -55 0 0 -95z"/>
<path d="M4330 1025 l0 -95 -40 0 -40 0 0 -40 c0 -40 0 -40 39 -40 l39 0 4
-232 c3 -217 5 -236 25 -274 30 -56 78 -75 208 -81 l100 -6 -3 46 -4 45 -90 4
c-132 5 -128 -5 -128 274 l0 224 110 0 110 0 0 40 0 40 -110 0 -110 0 0 95 0
95 -55 0 -55 0 0 -95z"/>
<path d="M276 939 c-51 -12 -99 -43 -131 -82 l-25 -32 0 53 0 52 -52 0 -53 0
0 -335 -1 -335 53 0 53 0 0 213 c0 124 5 229 11 252 32 116 193 172 270 95 42
-42 49 -86 49 -332 l0 -228 55 0 55 0 0 227 c0 211 2 230 21 271 30 60 83 94
152 96 68 1 103 -17 130 -69 20 -37 22 -58 25 -282 l4 -243 50 0 49 0 -3 258
c-4 280 -8 304 -66 365 -43 46 -80 61 -152 60 -81 0 -132 -24 -189 -89 -23
-26 -43 -45 -45 -43 -2 2 -11 18 -20 36 -22 43 -72 80 -126 92 -52 12 -62 12
-114 0z"/>
<path d="M1365 940 c-27 -5 -68 -15 -90 -23 -38 -13 -40 -16 -43 -60 l-3 -46
58 20 c176 61 327 15 340 -104 l6 -47 -120 0 c-237 0 -333 -64 -333 -223 0
-91 29 -143 101 -180 49 -26 61 -29 134 -25 92 5 149 29 189 80 l26 33 0 -52
0 -53 56 0 56 0 -4 243 c-3 229 -5 245 -27 295 -27 61 -84 114 -140 130 -55
17 -148 22 -206 12z m265 -392 c-1 -121 -95 -218 -210 -218 -14 0 -46 10 -70
23 -54 26 -78 78 -66 141 15 78 72 103 244 105 l102 1 0 -52z"/>
<path d="M2711 940 c-50 -11 -83 -30 -123 -74 l-28 -30 0 47 0 47 -55 0 -55 0
0 -460 0 -460 55 0 55 0 0 174 0 173 43 -42 c98 -98 287 -84 368 27 134 186
81 510 -95 583 -45 19 -114 25 -165 15z m102 -94 c41 -17 91 -73 108 -123 21
-57 18 -208 -4 -265 -69 -179 -298 -162 -348 26 -18 65 -7 223 18 271 49 93
137 129 226 91z"/>
<path d="M3761 940 c-23 -5 -62 -21 -86 -34 -97 -57 -138 -147 -139 -306 -1
-127 17 -188 76 -255 56 -64 106 -87 199 -93 145 -9 233 38 290 154 28 56 33
78 37 163 8 174 -45 289 -161 345 -59 28 -150 39 -216 26z m140 -94 c45 -19
74 -48 101 -99 20 -36 23 -57 23 -152 0 -94 -3 -116 -22 -150 -31 -58 -71 -92
-124 -105 -88 -22 -167 18 -211 108 -19 40 -23 63 -23 147 0 85 4 107 24 148
48 98 144 140 232 103z"/>
<path d="M5160 595 l0 -335 50 0 50 0 0 335 0 335 -50 0 -50 0 0 -335z"/>
</g>
</svg>
