<?xml version="1.0" encoding="UTF-8"?>
<svg version="1.1" xmlns="http://www.w3.org/2000/svg" width="1161" height="830">
<path d="M0 0 C86.17464917 -0.52430754 86.17464917 -0.52430754 122.1484375 -0.63476562 C130.38249038 -0.66021774 138.61654005 -0.68648394 146.85058594 -0.71411133 C147.88258102 -0.71754006 148.9145761 -0.7209688 149.97784376 -0.72450143 C166.63598503 -0.7810338 183.29354259 -0.88351746 199.9513378 -1.00298635 C217.0484373 -1.12458267 234.14523136 -1.1967694 251.24274552 -1.22315043 C261.79213677 -1.24098344 272.3398789 -1.2972886 282.88876243 -1.40291407 C290.12387928 -1.47166592 297.35814445 -1.49239466 304.5935642 -1.47551791 C308.76798302 -1.46719456 312.93952239 -1.47988753 317.11342812 -1.54967117 C320.93968319 -1.61317385 324.76113895 -1.61600661 328.58762003 -1.57168563 C330.6185277 -1.5636315 332.64938244 -1.61952057 334.67946231 -1.67805701 C343.22093321 -1.49708989 343.22093321 -1.49708989 346.53380361 1.29070021 C349.87180457 4.86184593 352.43521297 8.85495987 355 13 C355.89019401 14.24187265 356.78949947 15.47740514 357.70703125 16.69921875 C358.40183594 17.68535156 359.09664063 18.67148437 359.8125 19.6875 C360.64534087 20.86363013 361.47870165 22.03939222 362.3125 23.21484375 C362.74433594 23.82440918 363.17617188 24.43397461 363.62109375 25.06201172 C366.16577612 28.63844385 368.74032199 32.19331847 371.3125 35.75 C371.86010986 36.50756592 372.40771973 37.26513184 372.97192383 38.0456543 C374.09005534 39.59236753 375.20830141 41.13899794 376.32666016 42.68554688 C379.05263139 46.45593019 381.77621534 50.22803694 384.5 54 C385.58332144 55.50000859 386.66665479 57.00000858 387.75 58.5 C407.25 85.5 407.25 85.5 408.87475586 87.74975586 C409.95878416 89.2506555 411.04293142 90.75146922 412.12719727 92.25219727 C414.82587655 95.98773967 417.52251312 99.72472254 420.21484375 103.46484375 C425.82903178 111.25915847 431.47885383 119.024536 437.1875 126.75 C442.00286929 133.26722873 446.75864473 139.82113315 451.453125 146.42578125 C454.38542733 150.54889574 457.34848276 154.64965194 460.3125 158.75 C460.86043213 159.50804932 461.40836426 160.26609863 461.97290039 161.04711914 C463.09072453 162.59333097 464.20864504 164.13947313 465.32666016 165.68554688 C468.05263139 169.45593019 470.77621534 173.22803694 473.5 177 C474.58332144 178.50000859 475.66665479 180.00000858 476.75 181.5 C496.25 208.5 496.25 208.5 497.87475586 210.74975586 C498.95878416 212.2506555 500.04293142 213.75146922 501.12719727 215.25219727 C503.82587655 218.98773967 506.52251312 222.72472254 509.21484375 226.46484375 C514.82903178 234.25915847 520.47885383 242.024536 526.1875 249.75 C531.00286929 256.26722873 535.75864473 262.82113315 540.453125 269.42578125 C544.48250681 275.09150076 548.56617851 280.71822325 552.640625 286.3515625 C554.86427437 289.42619034 557.08280499 292.50440486 559.296875 295.5859375 C566.41288061 305.48176532 573.64867283 315.27770425 581 325 C581.57105469 324.19820313 582.14210938 323.39640625 582.73046875 322.5703125 C589.22615499 313.45863006 595.76960128 304.3820376 602.32666016 295.31445312 C605.05263139 291.54406981 607.77621534 287.77196306 610.5 284 C611.58332144 282.49999141 612.66665479 280.99999142 613.75 279.5 C614.28625 278.7575 614.8225 278.015 615.375 277.25 C617 275 618.625 272.75 620.25 270.5 C620.78616943 269.75758057 621.32233887 269.01516113 621.87475586 268.25024414 C622.95878416 266.7493445 624.04293142 265.24853078 625.12719727 263.74780273 C627.82587655 260.01226033 630.52251312 256.27527746 633.21484375 252.53515625 C638.82903178 244.74084153 644.47885383 236.975464 650.1875 229.25 C655.00286929 222.73277127 659.75864473 216.17886685 664.453125 209.57421875 C667.38542733 205.45110426 670.34848276 201.35034806 673.3125 197.25 C674.13439819 196.11292603 674.13439819 196.11292603 674.97290039 194.95288086 C676.09072453 193.40666903 677.20864504 191.86052687 678.32666016 190.31445312 C681.05263139 186.54406981 683.77621534 182.77196306 686.5 179 C687.58332144 177.49999141 688.66665479 175.99999142 689.75 174.5 C690.28625 173.7575 690.8225 173.015 691.375 172.25 C697.33333333 164 703.29166667 155.75 709.25 147.5 C710.05425415 146.38637085 710.05425415 146.38637085 710.87475586 145.25024414 C711.95878416 143.7493445 713.04293142 142.24853078 714.12719727 140.74780273 C716.82587655 137.01226033 719.52251312 133.27527746 722.21484375 129.53515625 C727.82903178 121.74084153 733.47885383 113.975464 739.1875 106.25 C744.00286929 99.73277127 748.75864473 93.17886685 753.453125 86.57421875 C756.38542733 82.45110426 759.34848276 78.35034806 762.3125 74.25 C762.86043213 73.49195068 763.40836426 72.73390137 763.97290039 71.95288086 C765.09072453 70.40666903 766.20864504 68.86052687 767.32666016 67.31445312 C770.05263139 63.54406981 772.77621534 59.77196306 775.5 56 C776.58332144 54.49999141 777.66665479 52.99999142 778.75 51.5 C779.28625 50.7575 779.8225 50.015 780.375 49.25 C782 47 783.625 44.75 785.25 42.5 C785.78665283 41.75693604 786.32330566 41.01387207 786.8762207 40.24829102 C787.95546124 38.75397045 789.03472542 37.25966696 790.11401367 35.76538086 C792.88516469 31.9286279 795.65585687 28.09154488 798.42578125 24.25390625 C798.99296875 23.46822266 799.56015625 22.68253906 800.14453125 21.87304688 C801.20849036 20.39920188 802.2723073 18.92525425 803.3359375 17.45117188 C804.31315173 16.09761535 805.30145394 14.75197649 806.3020668 13.41562444 C808.06544444 10.9932154 808.06544444 10.9932154 809.56509018 8.21262711 C814.14993055 0.62351909 814.14993055 0.62351909 818.99828339 -1.01049554 C822.72536212 -1.38941287 826.31402662 -1.4137816 830.05957031 -1.32279968 C831.48955433 -1.32760115 832.91952886 -1.33724118 834.34945202 -1.35128051 C838.26616962 -1.3758146 842.1795625 -1.33198299 846.09585643 -1.27672184 C850.32342708 -1.22913268 854.55081649 -1.24529965 858.77857971 -1.25364685 C866.09898165 -1.25940958 873.41830358 -1.22495502 880.73843384 -1.16303062 C891.3218632 -1.07355882 901.90477134 -1.04497754 912.48853791 -1.03116272 C929.66046052 -1.00709906 946.83180772 -0.93392631 964.00341797 -0.82983398 C980.68210012 -0.72883498 997.36062509 -0.65111337 1014.03955078 -0.60424805 C1015.07844535 -0.60130008 1016.11733991 -0.5983521 1017.18771613 -0.5953148 C1025.31278655 -0.5724406 1033.43786039 -0.55091463 1041.56293559 -0.5298146 C1081.37581857 -0.42607933 1121.18726082 -0.20477251 1161 0 C1161 77.22 1161 154.44 1161 234 C1131.63 234 1102.26 234 1072 234 C1072 353.46 1072 472.92 1072 596 C1101.37 596 1130.74 596 1161 596 C1161 673.22 1161 750.44 1161 830 C1016.46 830 871.92 830 723 830 C723 752.78 723 675.56 723 596 C754.02 596 785.04 596 817 596 C816.67 519.77 816.34 443.54 816 365 C808.61695023 374.6547574 801.32800038 384.22343589 794.32617188 394.13085938 C784.47421123 408.01646517 774.34857487 421.70432755 764.22949219 435.39550781 C757.40034581 444.63804661 750.6079307 453.9038828 743.89428711 463.23071289 C739.38568587 469.4862521 734.81319395 475.69318346 730.23046875 481.89453125 C726.28584489 487.23857821 722.38041885 492.60918549 718.5 498 C711.15996467 508.19356463 703.69545394 518.29401627 696.22949219 528.39550781 C689.94498265 536.90093735 683.67980365 545.41808621 677.5 554 C670.15975779 564.19341866 662.69545642 574.29401291 655.22949219 584.39550781 C648.40034581 593.63804661 641.6079307 602.9038828 634.89428711 612.23071289 C630.38568587 618.4862521 625.81319395 624.69318346 621.23046875 630.89453125 C616.7461175 636.96978317 612.31796233 643.08371504 607.90771484 649.21289062 C603.85381316 654.83871337 599.74764069 660.42440525 595.625 666 C590.98903365 672.27066108 586.40230372 678.56204455 582 685 C577.85591455 683.49050281 575.9951138 680.57820965 573.625 677.0625 C572.73991042 675.78662869 571.85309553 674.51195308 570.96484375 673.23828125 C570.48901855 672.55330566 570.01319336 671.86833008 569.52294922 671.16259766 C566.81007047 667.31029244 563.99371042 663.53455425 561.1875 659.75 C556.58618059 653.52743543 552.02070754 647.28136784 547.5 641 C540.74024399 631.61213466 533.87582562 622.30303378 527 613 C519.57940327 602.9598876 512.18803961 592.90202492 504.89428711 582.76928711 C500.9660112 577.31893063 496.99287964 571.90316826 493 566.5 C488.46248989 560.35983731 483.96033424 554.19645339 479.5 548 C472.74016251 538.61219227 465.87582656 529.30303505 459 520 C451.57878505 509.95905114 444.18828194 499.89933596 436.89208984 489.76708984 C430.66337597 481.12750396 424.33045986 472.5651506 418 464 C410.57940327 453.9598876 403.18803961 443.90202492 395.89428711 433.76928711 C391.9660112 428.31893063 387.99287964 422.90316826 384 417.5 C378.92387208 410.63097922 373.9013556 403.72602253 368.91210938 396.79370117 C364.24087293 390.31228931 359.50760152 383.87764562 354.75585938 377.45507812 C354.20736328 376.71322266 353.65886719 375.97136719 353.09375 375.20703125 C352.61615234 374.5622583 352.13855469 373.91748535 351.64648438 373.25317383 C349.40588629 370.18696983 347.20731942 367.09024719 345 364 C344.67 440.56 344.34 517.12 344 596 C375.02 596 406.04 596 438 596 C438 673.22 438 750.44 438 830 C293.46 830 148.92 830 0 830 C0 752.78 0 675.56 0 596 C29.37 596 58.74 596 89 596 C89 476.54 89 357.08 89 234 C59.63 234 30.26 234 0 234 C0 156.78 0 79.56 0 0 Z " fill="#FFCB05" transform="translate(0,0)"/>
</svg>
